# xmcd
#
# Track frame offsets:
#	150
#	9915
#	20597
#	35245
#	45835
#	59630
#	76772
#	89977
#	112190
#	125535
#	142627
#
# Disc length: 2120 seconds
#
# Revision: 0
# Processed by: cddbd v1.4PL0 Copyright (c) Steve Scherf et al.
# Submitted via: audiograbber 1.80.04
#
DISCID=8e08460b
DTITLE=Paulo Do Norte e Banda - Carimbó e Merengue
DYEAR=2001
DGENRE=Other
TTITLE0=Carimbó Do Pará
TTITLE1=Ninguem Segura O Carimbo
TTITLE2=Eu Vou Pra La
TTITLE3=O Piolho
TTITLE4=Morena Linda
TTITLE5=Suke-Suke
TTITLE6=Eu Tô Que Tô
TTITLE7=Macussamaê
TTITLE8=Tchaca Na Butchaca
TTITLE9=Longe De Você
TTITLE10=Noite De Lua Cheia
EXTD=ripped by cameramanpt@hotmail.com
EXTT0=
EXTT1=
EXTT2=
EXTT3=
EXTT4=
EXTT5=
EXTT6=
EXTT7=
EXTT8=
EXTT9=
EXTT10=
PLAYORDER=
